<svg id="Layer_1" data-name="Layer 1" xmlns="http://www.w3.org/2000/svg" viewBox="0 0 169.1 159.53"><defs><style>.cls-1{fill:#2b3990;}.cls-2{fill:#9b8579;}.cls-3{fill:#1c75bc;}.cls-4{fill:#27aae1;}</style></defs><path class="cls-1" d="M27.48,98.25a5.35,5.35,0,0,1,2.35,2,6,6,0,0,1,0,6,5.24,5.24,0,0,1-2.35,2,8.7,8.7,0,0,1-3.6.68H20.3v4.59H17.35V97.57h6.53A8.86,8.86,0,0,1,27.48,98.25Zm-.81,7.31a3.23,3.23,0,0,0,0-4.67,4.48,4.48,0,0,0-2.92-.82H20.3v6.31h3.45A4.48,4.48,0,0,0,26.67,105.56Z"/><path class="cls-1" d="M32.66,102.2H35.5v11.26H32.66Zm0-4.63H35.5v2.75H32.66Z"/><path class="cls-1" d="M68.26,111v2.48H56.34V97.57h11.6v2.48H59.29v4.13H67v2.42H59.29V111Z"/><path class="cls-1" d="M70.19,97.57h3V111h8.3v2.5H70.19Z"/><path class="cls-1" d="M82.87,97.57h2.95V111h8.31v2.5H82.87Z"/><path class="cls-1" d="M113.12,113.46l-3.24-4.65-.62,0h-3.58v4.63h-3V97.57h6.53a8.86,8.86,0,0,1,3.6.68,5.3,5.3,0,0,1,2.35,2,5.52,5.52,0,0,1,.82,3,5.33,5.33,0,0,1-.88,3.09,5.22,5.22,0,0,1-2.5,1.93l3.65,5.22Zm-1.06-12.57a4.53,4.53,0,0,0-2.93-.82h-3.45v6.33h3.45a4.53,4.53,0,0,0,2.93-.83,2.88,2.88,0,0,0,1-2.35A2.84,2.84,0,0,0,112.06,100.89Z"/><path class="cls-1" d="M118.27,98.85a1.67,1.67,0,0,1,0-2.42,1.81,1.81,0,0,1,1.3-.49,1.87,1.87,0,0,1,1.29.46,1.49,1.49,0,0,1,.52,1.17,1.71,1.71,0,0,1-.51,1.26,1.76,1.76,0,0,1-1.3.51A1.81,1.81,0,0,1,118.27,98.85Zm-.13,2.49H121v12.12h-2.83Z"/><path class="cls-1" d="M136,101.34l-5.19,12.12h-2.93l-5.2-12.12h3l3.77,9,3.88-9Z"/><path class="cls-1" d="M147.91,108.31H138.4a3.29,3.29,0,0,0,1.31,2.12,4.27,4.27,0,0,0,2.62.78,4.44,4.44,0,0,0,3.29-1.31l1.52,1.74a5.21,5.21,0,0,1-2.07,1.48,8.14,8.14,0,0,1-6.33-.3,5.7,5.7,0,0,1-2.35-2.21,6.26,6.26,0,0,1-.82-3.21,6.33,6.33,0,0,1,.8-3.19,5.67,5.67,0,0,1,2.24-2.21,6.49,6.49,0,0,1,3.22-.8A6.26,6.26,0,0,1,145,102a5.5,5.5,0,0,1,2.18,2.2,6.69,6.69,0,0,1,.79,3.28C148,107.66,147.94,107.94,147.91,108.31Zm-8.38-4a3.4,3.4,0,0,0-1.15,2.14h6.88a3.53,3.53,0,0,0-5.73-2.14Z"/><path class="cls-1" d="M156.33,101.2v2.7a4,4,0,0,0-.66-.06,3.45,3.45,0,0,0-2.59,1,3.84,3.84,0,0,0-.93,2.78v5.88h-2.83V101.34H152v1.77Q153.24,101.21,156.33,101.2Z"/><path class="cls-2" d="M18.43,120v6.35H26v.6H18.43v6.33h-.68v-13.9h9.12V120Z"/><path class="cls-2" d="M29.59,120.12a.64.64,0,1,1,.91-.91.59.59,0,0,1,.2.44.65.65,0,0,1-.2.46.63.63,0,0,1-.91,0Zm.14,2.89h.65v10.3h-.65Z"/><path class="cls-2" d="M42.69,124.05a4.38,4.38,0,0,1,1.12,3.21v6h-.66v-6a3.89,3.89,0,0,0-.92-2.79,3.5,3.5,0,0,0-2.63-1,4,4,0,0,0-3,1.14,4.2,4.2,0,0,0-1.11,3.06v5.56h-.66V123h.64v2.52A4,4,0,0,1,37,123.62a4.9,4.9,0,0,1,2.64-.69A4.06,4.06,0,0,1,42.69,124.05Z"/><path class="cls-2" d="M54.3,123.88a3.66,3.66,0,0,1,1,2.76v6.67h-.63v-2.06a3.71,3.71,0,0,1-1.48,1.56,4.62,4.62,0,0,1-2.35.56,4.17,4.17,0,0,1-2.71-.79,2.74,2.74,0,0,1-.09-4.14,4.27,4.27,0,0,1,2.86-.79h3.75v-1a3.1,3.1,0,0,0-.81-2.32,3.22,3.22,0,0,0-2.37-.79,5.48,5.48,0,0,0-2,.37,5.05,5.05,0,0,0-1.63,1l-.36-.47a5.15,5.15,0,0,1,1.82-1.11,6.2,6.2,0,0,1,2.23-.4A3.94,3.94,0,0,1,54.3,123.88Zm.33,6.46v-2.15H50.88a3.69,3.69,0,0,0-2.36.61,2,2,0,0,0-.74,1.64,2.06,2.06,0,0,0,.82,1.74,3.57,3.57,0,0,0,2.26.64A3.72,3.72,0,0,0,54.63,130.34Z"/><path class="cls-2" d="M67.48,124.05a4.38,4.38,0,0,1,1.11,3.21v6h-.66v-6a3.89,3.89,0,0,0-.92-2.79,3.48,3.48,0,0,0-2.63-1,4,4,0,0,0-3,1.14,4.2,4.2,0,0,0-1.11,3.06v5.56h-.66V123h.64v2.52a4,4,0,0,1,1.6-1.91,4.84,4.84,0,0,1,2.63-.69A4.1,4.1,0,0,1,67.48,124.05Z"/><path class="cls-2" d="M74.22,132.71a4.68,4.68,0,0,1-1.83-1.86,5.46,5.46,0,0,1-.67-2.7,5.51,5.51,0,0,1,.67-2.7,4.81,4.81,0,0,1,1.83-1.86,5.52,5.52,0,0,1,4.8-.21,3.86,3.86,0,0,1,1.64,1.32l-.5.41a3.6,3.6,0,0,0-1.42-1.17,4.82,4.82,0,0,0-4.19.19A4.09,4.09,0,0,0,73,125.76a4.78,4.78,0,0,0-.58,2.39,4.84,4.84,0,0,0,.58,2.4,4.05,4.05,0,0,0,1.59,1.64,4.55,4.55,0,0,0,2.3.59,4.39,4.39,0,0,0,1.89-.4,3.44,3.44,0,0,0,1.42-1.17l.5.4A4,4,0,0,1,79,132.93a5.57,5.57,0,0,1-4.8-.22Z"/><path class="cls-2" d="M83.66,120.12a.64.64,0,0,1,.45-1.1.62.62,0,0,1,.46.19.59.59,0,0,1,.2.44.65.65,0,0,1-.2.46.63.63,0,0,1-.46.2A.61.61,0,0,1,83.66,120.12ZM83.8,123h.65v10.3H83.8Z"/><path class="cls-2" d="M95.07,123.88a3.7,3.7,0,0,1,1,2.76v6.67h-.64v-2.06a3.65,3.65,0,0,1-1.48,1.56,4.59,4.59,0,0,1-2.35.56,4.19,4.19,0,0,1-2.71-.79,2.76,2.76,0,0,1-.09-4.14,4.3,4.3,0,0,1,2.86-.79h3.75v-1a3.14,3.14,0,0,0-.8-2.32,3.25,3.25,0,0,0-2.37-.79,5.57,5.57,0,0,0-2,.37,5.05,5.05,0,0,0-1.63,1l-.36-.47A5.24,5.24,0,0,1,90,123.33a6.22,6.22,0,0,1,2.24-.4A3.94,3.94,0,0,1,95.07,123.88Zm.32,6.46v-2.15H91.64a3.65,3.65,0,0,0-2.35.61,2,2,0,0,0-.75,1.64,2.07,2.07,0,0,0,.83,1.74,3.56,3.56,0,0,0,2.25.64A3.72,3.72,0,0,0,95.39,130.34Z"/><path class="cls-2" d="M100.34,118.58H101v14.73h-.65Z"/><polygon class="cls-3" points="49.01 113.46 55.23 113.46 49.28 105.22 43.13 105.22 49.01 113.46"/><polygon class="cls-1" points="49.03 97.33 43.13 105.22 49.28 105.22 54.88 97.33 49.03 97.33"/><polygon class="cls-4" points="43.31 113.46 37.09 113.46 43.03 105.22 49.18 105.22 43.31 113.46"/><polygon class="cls-3" points="43.28 97.33 49.18 105.22 43.03 105.22 37.43 97.33 43.28 97.33"/><path class="cls-2" d="M93.37,57.19,85,48.85l-8.34,8.34a1.93,1.93,0,0,0,0,2.74L85,68.27l8.34-8.34A2,2,0,0,0,93.37,57.19Z"/><path class="cls-4" d="M93.27,79l2-2A12.55,12.55,0,0,0,87,78.75,14,14,0,0,1,78.71,81l.82.83.38.38a14.54,14.54,0,0,0,6.93-1.58A13.25,13.25,0,0,1,93.27,79Z"/><path class="cls-4" d="M77.32,77.65a11.11,11.11,0,0,1-2.95-1l1.92,1.92a14.1,14.1,0,0,0,10-1.17A13.41,13.41,0,0,1,96,76.27l1.65-1.65a12.55,12.55,0,0,0-11.2.92A13.49,13.49,0,0,1,77.32,77.65Z"/><path class="cls-1" d="M105.5,50.32,99,43.82h0l-8.48-8.48L85,29.84,68.1,46.77h0l-3.55,3.55a11.67,11.67,0,0,0,0,16.48l5.38,5.38,0,0A13.47,13.47,0,0,0,83.74,75L70,61.31a3.91,3.91,0,0,1,0-5.5l4.44-4.44h0L85,40.83l8.39,8.39h0L100,55.81a3.91,3.91,0,0,1,0,5.5L94.28,67l-6.15,6.15a13.52,13.52,0,0,1,10.07.91l2.16-2.16,5.14-5.14A11.65,11.65,0,0,0,105.5,50.32Z"/><path class="cls-4" d="M87.56,82a15.66,15.66,0,0,1-5.72,2.14L85,87.27l7-7A12.45,12.45,0,0,0,87.56,82Z"/></svg>